<?xml version="1.0" encoding="utf-8"?>
<!-- Generator: Adobe Illustrator 27.5.0, SVG Export Plug-In . SVG Version: 6.00 Build 0)  -->
<svg version="1.1" xmlns="http://www.w3.org/2000/svg" xmlns:xlink="http://www.w3.org/1999/xlink" x="0px" y="0px"
	 viewBox="0 0 2200 2200" style="enable-background:new 0 0 2200 2200;" xml:space="preserve">
<g id="Objects">
	<g>
		<g>
			<path d="M1094.879,1101.375c9.735,6.455,19.769-6.425,12.011-14.273c-31.466-31.496-63.291-62.168-94.188-94.009
				c-44.541-45.784-87.733-93.964-123.677-146.861c-10.918,16.1-20.832,33.593-29.669,52.269
				C926.616,977.069,1011.189,1042.038,1094.879,1101.375z"/>
			<path d="M1876.541,397.532c-37.262-65.837-96.315-120.233-167.634-146.951c-75.632-28.905-162.841-23.079-235.673,10.484
				c-75.318,34.132-139.568,98.232-163.875,178.102c-0.674,2.441-1.707,6.365-2.606,9.78c-0.479-1.198-0.958-2.336-1.408-3.385
				c-2.426-6.245-6.545-14.917-9.57-21.027c-33.203-65.688-90.025-119.708-158.229-147.88
				c-51.894-21.506-109.884-27.677-165.238-18.107c-86.82,15.246-157.51,68.174-199.13,145.513
				c-55.593,104.328-54.245,234.609-9.87,342.486c10.169,24.008,22.046,46.892,35.345,68.788
				c10.364-20.293,21.896-39.389,34.536-57.031c1.198-1.677,2.411-3.355,3.654-5.002c-8.552-19.32-15.8-39.224-21.207-59.637
				c-33.623-125.894-3.984-291.101,125.669-347.983c32.065-14.378,67.665-21.132,102.815-20.952c3.879,0.15,5.571-0.15,9.78,0.15
				l9.78,0.569l2.456,0.15l2.426,0.285l4.882,0.524c5.227,0.344,14.423,2.067,19.47,2.801l9.645,2.037
				c29.414,6.5,57.825,18.272,83.824,33.413c33.308,19.38,63.336,44.87,89.111,73.58c9.645,10.753,18.676,22.18,27.662,33.967
				c1.168,4.164,7.174,4.942,9.3,1.078l1.033-1.767c52.748-91.193,150.8-147.73,254.528-150.351
				c8.761,0.06,18.451,0.15,27.138,1.093c14.228,1.228,28.665,3.954,42.399,7.728c9.166,2.711,18.736,5.946,27.467,9.87
				c13.808,5.901,27.168,13.524,39.448,22.195c84.738,59.622,133.502,176.62,101.287,277.368
				c-11.053,34.312-30.058,66.541-52.673,94.847c-51.954,64.34-117.147,112.699-180.409,167.679
				c-67.365,58.514-130.746,122.284-180.364,197.557c-37.247,56.657-64.939,119.379-82.971,184.602
				c-29.399,105.75-36.079,217.731-30.508,325.353c0.255,4.703,3.834,8.687,8.656,9.301c5.422,0.674,10.364-3.175,11.038-8.597
				c10.289-83.854,24.427-167.694,49.153-248.014l1.123-3.729l1.213-3.699l2.426-7.369l2.411-7.383l1.198-3.684l1.318-3.654
				l5.212-14.557c47.895-130.447,118.121-214.601,222.314-303.802c65.014-55.534,137.411-103.249,200.717-163.216
				c70.974-65.733,130.072-154.394,136.782-253.675C1927.791,527.829,1910.568,457.948,1876.541,397.532z"/>
			<path d="M1361.75,954.772c25.105-124.468-18.068-262.104-146.474-307.246c-32.464-11.322-67.384-15.69-101.651-13.857
				c-230.641,15.346-336.351,220.924-347.69,427.767C679.198,936.07,525.134,792.64,376.261,884.737
				c-138.022,89.25-111.572,254.791-46.751,381.911c89.55,175.193,258.528,346.971,434.148,435.608
				c37.042,17.646,76.438,33.059,117.686,35.967c-73.491-23.685-141.717-80.272-198.593-131.315
				c-128.75-119.645-282.56-306.224-322.841-478.877c-15.384-68.832-6.68-137.666,50.66-181.538
				c12.509-10.108,26.336-17.862,41.63-22.627c109.628-32.294,246.72,93.681,312.723,180.17c0.009,1.249,0.003,2.499,0.019,3.747
				c0.904,43.708,7.107,113.092,30.669,150.013c4.561,6.803,11.29,13.748,19.912,15.784c6.144,1.477,12.404,0.23,17.988-2.597
				c5.744-2.853,9.822-8.804,11.556-14.727c10.794-41.206-31.386-117.706-52.524-153.566c-3.828-6.396-7.88-12.93-12.139-19.559
				c4.596-51.794,16.276-103.377,32.733-150.632c46.089-131.719,142.214-234.128,287.798-239.475
				c53.578-1.314,104.904,13.07,141.139,51.214c53.127,57.082,53.611,146.481,28.479,217.498
				c-15.407,44.222-37.496,83.673-62.146,125.687c-19.379,32.929-42.671,69.489-62.647,102.526
				c-84.237,139.353-170.179,279.177-233.09,429.98c-7.726,18.987-14.718,38.324-20.601,57.961
				c-5.691,19.597-10.459,39.85-10.727,60.333c5.778-29.939,19.44-57.095,33.464-83.761
				c84.148-149.448,192.017-283.916,294.305-421.266c50.982-67.357,103.225-132.331,133.743-213.437
				C1350.824,998.64,1357.391,977.074,1361.75,954.772z M835.52,1246.935c-0.269,6.397-1.589,12.157-6.756,15.446
				c-3.3,1.914-7.492,3.169-11.32,2.402c-6.425-1.355-11.171-6.184-15.146-11.651c-11.037-16.009-15.963-36.192-19.358-55.326
				c-3.61-24.622-5.058-49.944-4.631-75.468C801.926,1155.869,835.169,1209.339,835.52,1246.935z"/>
		</g>
		<ellipse style="fill:#CECECE;" cx="1100" cy="1930.66" rx="409.422" ry="37.34"/>
	</g>
</g>
</svg>
